# xmcd
#
# Track frame offsets:
#	150
#	15353
#	27913
#	50518
#	63885
#	80195
#	100278
#	117035
#	131663
#	149520
#	171383
#	190493
#	207670
#	223818
#
# Disc length: 3118 seconds
#
# Revision: 1
# Processed by: cddbd v1.5.2PL0 Copyright (c) Steve Scherf et al.
# Submitted via: audiograbber 1.83.01
#
DISCID=d60c2c0e
DTITLE=Rocket No 9 - Hits The Ground
DYEAR=1991
DGENRE=Crossover
TTITLE0=Coconut
TTITLE1=Burned Out Love
TTITLE2=One More Try
TTITLE3=Sightseeing
TTITLE4=That's Why I Wonder
TTITLE5=Give Me A Sign
TTITLE6=Big Brother
TTITLE7=Near The End
TTITLE8=I've Been Hoodooed
TTITLE9=Let's Spend Your Money
TTITLE10=Burning Heart
TTITLE11=Gorbie Meets Maggie
TTITLE12=Dancing Shoes
TTITLE13=Ride My Rocket
EXTD=
EXTT0=
EXTT1=
EXTT2=
EXTT3=
EXTT4=
EXTT5=
EXTT6=
EXTT7=
EXTT8=
EXTT9=
EXTT10=
EXTT11=
EXTT12=
EXTT13=
PLAYORDER=
